<svg xmlns="http://www.w3.org/2000/svg" width="21.835" height="21.835" viewBox="0 0 21.835 21.835">
  <g id="Group_23" transform="translate(-433 -233)">
    <path id="Path_408"
          d="M4.839,145.566l-.76,2.837-2.778.059a10.937,10.937,0,0,1-.08-10.195h0l2.473.453,1.083,2.458a6.516,6.516,0,0,0,.061,4.387Z"
          transform="translate(433 100.629)" fill="#fbbb00"/>
    <path id="Path_409"
          d="M272.115,208.176a10.913,10.913,0,0,1-3.892,10.553h0l-3.115-.159-.441-2.752a6.507,6.507,0,0,0,2.8-3.323h-5.838v-4.319h10.487Z"
          transform="translate(182.529 33.702)" fill="#518ef8"/>
    <path id="Path_410" d="M46.96,315.645h0a10.921,10.921,0,0,1-16.451-3.34l3.538-2.9a6.493,6.493,0,0,0,9.357,3.324Z"
          transform="translate(403.792 -63.214)" fill="#28b446"/>
    <path id="Path_411"
          d="M45.289,2.513l-3.537,2.9a6.492,6.492,0,0,0-9.571,3.4L28.625,5.9h0A10.92,10.92,0,0,1,45.289,2.513Z"
          transform="translate(405.597 233)" fill="#f14336"/>
  </g>
</svg>
