<svg xmlns="http://www.w3.org/2000/svg" width="280.752" height="325.451" viewBox="0 0 280.752 325.451">
  <defs>
    <linearGradient id="linear-gradient" x1="0.508" y1="-0.015" x2="0.515" y2="0.5" gradientUnits="objectBoundingBox">
      <stop offset="0" stop-color="#fff"/>
      <stop offset="1" stop-color="#fff" stop-opacity="0"/>
    </linearGradient>
  </defs>
  <g id="Group_357" transform="translate(0)" opacity="0.151">
    <path id="Union_17"
          d="M201.99,325.064c-1.842-1.211-3.945-1.16-6-1.309-.233-.018-.535.35-.905.466a3.349,3.349,0,0,1-4.291-1.4c-.19-.265-.494-.658-.728-.645-1.488.076-2.1-.961-2.635-2.026-.638-1.27-1.849-1.906-2.861-2.747-1.838-1.526-3.715-3-5.414-4.684-1.362-1.35-2.286-1.614-3.858-.634-1.551.967-3.1.679-4.619.3a13.223,13.223,0,0,1-4.775-2.168,8.077,8.077,0,0,1-2.738-2.613c-.407-.8-1.145-.652-1.776-.51a4.43,4.43,0,0,1-4.8-1.587,2.809,2.809,0,0,0-1.838-1.1,2.315,2.315,0,0,1-2.006-1.918,2.083,2.083,0,0,0-2.55-1.707c-1.649.117-1.845-.02-2.275-1.538a.976.976,0,0,0-1.083-.764c-.913.034-1.826.016-2.739,0a28.2,28.2,0,0,0-4.676.169.821.821,0,0,1-1.006-.45,3.8,3.8,0,0,0-2.819-2.053c-2.031-.361-2.617-2.906-2.313-4.578.3-1.622.849-3.2.5-4.9a2.06,2.06,0,0,1,1.006-1.889c1.522-1.178,2.433-3.007,4.241-3.875a1.377,1.377,0,0,0,.873-1.5c-.07-.372.006-.6.323-.712a.728.728,0,0,1,.822.19,19.114,19.114,0,0,1,1.816,1.97,4.925,4.925,0,0,0,4.5,2.078c.809-.027,1.47-.6,1.2-1.373-.367-1.044.241-1.544.705-2.233.536-.8,1.119-1.357,2.17-1.078a2.383,2.383,0,0,0,1.856-.436,1.986,1.986,0,0,1,2.681.473,5.567,5.567,0,0,1,.791,1.312c.783,1.723.992,1.729,2.227.285.89-1.041,1.676-.969,2.366.53a9.011,9.011,0,0,0,3.6,3.577c1.274.855,4.836.287,5.936-.822a6.061,6.061,0,0,1,3.677-1.556,1.856,1.856,0,0,1,.347-.006.875.875,0,0,0,.531-.079c.89-.651,1.548-.105,2.163.394a2.124,2.124,0,0,0,2.8.329,10.589,10.589,0,0,1,5.536-1.3c2.524-.111,3.114-.488,3.86-2.936a1.693,1.693,0,0,1,2.431-1.283,1.838,1.838,0,0,0,1.886-.2c.291-.227.678-.5,1.124-.2,1.047.71,2.35.912,3.36,1.724a1.734,1.734,0,0,0,2.734-.649,22.956,22.956,0,0,0,1.278-3.492c.172-.476.434-.913.884-.964.477-.054.4.468.5.823.336,1.2,1.943,1.625,3.215.826a33.556,33.556,0,0,0,3-2.094,1.142,1.142,0,0,1,1.218-.3,1.291,1.291,0,0,1,.648,1.093,14.877,14.877,0,0,1-1.064,5.63,36.2,36.2,0,0,1-4.166,7.983,12.784,12.784,0,0,1-1.48,2c-1.476,1.54-1.355,3.517-1.6,5.4a8,8,0,0,1-2.779,5.424c-.65.531-.462.914-.077,1.367a2.97,2.97,0,0,1,1.029,2.517c-.107.585.269.75.7.943,1.2.532,2.521.857,3.391,1.957.168.211.565.338.317.725-.215.336-.465.183-.774.1-.325-.082-.733-.362-1.04-.046-.353.363-.2.842-.043,1.246a2.6,2.6,0,0,0,2.12,1.794c.632.086.811.3.756.917-.053.6-.2,1.175.7,1.521.491.188.066.884-.4,1.056a4.364,4.364,0,0,0-2.337,2.2,1.568,1.568,0,0,1-.661.736c-1.435.53-1.447,1.655-1.394,2.9.067,1.536.031,3.076.013,4.614-.009.8-.115,1.165-.444,1.165A1.865,1.865,0,0,1,201.99,325.064Zm11.79-41.739c-.778-.362-.611-1.161-.208-1.717a3.642,3.642,0,0,0,.28-3.5c-.279-.875-.705-1.7-.988-2.577-.41-1.276.112-1.975,1.451-2.028.449-.019.9-.011,1.35,0a1.623,1.623,0,0,0,1.737-1.295c.37-1.843,1.707-3.149,2.471-4.765a1.586,1.586,0,0,0,.034-1.65,8.276,8.276,0,0,0-2-2.328c-1.194-.972-1.212-1.243-.179-2.259a10.437,10.437,0,0,1,2.4-1.949,3.7,3.7,0,0,1,2.835-.449c1.21.3,2.863-1.044,3.327-2.231a3.478,3.478,0,0,0-.017-3.258,1.48,1.48,0,0,0-.56-.666c-2.043-.855-2.635-2.467-2.931-4.563a41.964,41.964,0,0,0-1.122-5.4c-.279-.989-.3-2.04-.5-3.059a18.556,18.556,0,0,0-1.788-4.209,8.442,8.442,0,0,0-1.975-2.791,1.626,1.626,0,0,1-.619-1.258c0-.737-.587-1.182-1.085-1.623a2.766,2.766,0,0,1-.925-2.061,11.474,11.474,0,0,0-1.836-5.7,5.165,5.165,0,0,1-.722-1.605c-.5-2.1-2.35-2.581-3.949-3.312-.437-.2-.892.356-1.216.776-1.7,2.191-3.128,2.429-5.507.938-.088-.056-.224-.108-.245-.189-.684-2.484-3.13-2.588-4.908-3.531a3.153,3.153,0,0,1-1.692-1.451,1.4,1.4,0,0,0-1.518-.9,7.18,7.18,0,0,1-.918.016c-.144,0-.289-.009-.432-.007-.446,0-1.022.105-1.16-.416-.093-.355.411-.657.706-.805a1.842,1.842,0,0,0,1.054-2.112c-.563-1.46-.006-2.111,1.178-2.68.379-.182.212-.539.035-.872a20.876,20.876,0,0,0-4.332-5.159.9.9,0,0,0-1.435.183,3.1,3.1,0,0,1-3.6,1.308c-1.2-.35-2.27.267-3.311.812a5.358,5.358,0,0,1-1.494.692c-.776.122-1.62.065-2-.828a1.923,1.923,0,0,1,.877-2.217c.2-.1.426-.152.624-.257,1.26-.677,1.308-1.433.172-2.288-1.395-1.05-2.785-1.8-4.7-1.395-1.593.341-2.849-.834-4.017-1.745-.377-.294-.433-1.16-.425-1.762.022-1.475-.426-2.6-1.908-3.109a2.211,2.211,0,0,1-1.355-1.364,30,30,0,0,1-1.274-2.9c-.8-2.522-3.912-4.178-5.721-3.693a1.223,1.223,0,0,0-.6.258c-1.238,1.453-2.565.663-3.9.207a18.953,18.953,0,0,1-2.53-1.245c-.746-.384-1.683.289-2.506.577-1.071.373-2.1.88-3.174,1.221a1.817,1.817,0,0,1-2.491-1.213,8.248,8.248,0,0,0-4.9-4.233c-.786-.319-1.713-.112-2.6-.434-1.817-.66-2.511-2.163-3.17-3.7a13.724,13.724,0,0,0-1.814-2.618c-.276-.381-.724-.658-.932-1.063a2.612,2.612,0,0,0-2.724-1.49c-1.391.054-2.032-.621-2.081-2.023-.016-.485.02-.977-.018-1.462a2.5,2.5,0,0,0-1.387-2.124,2.574,2.574,0,0,1-.5-.221c-2.156-1.924-4.954-2.615-7.429-3.926a2.624,2.624,0,0,1-1.708-2.507,3.016,3.016,0,0,0-.5-1.687c-1.4-2.525-2.869-5.079-5.6-6.376a8.141,8.141,0,0,0-5.033-.494,5.079,5.079,0,0,1-2.7-.308c-.773-.262-1.2-1.3-.678-1.8,1.591-1.523.212-2.725-.372-3.93a7.083,7.083,0,0,0-2.916-2.762c-1.485-.911-2.341-2.575-3.983-3.357a7.9,7.9,0,0,0-1.645-.551c-.963-.225-1.229-.761-.563-1.517.421-.48.981-.928.683-1.568a1.587,1.587,0,0,0-1.737-.755c-.529.058-.81-.294-1.158-.573a1.458,1.458,0,0,0-1.9-.267,1.142,1.142,0,0,1-1.454-.054,1.557,1.557,0,0,1-.277-1.78,8.469,8.469,0,0,0,.775-3.64c-.059-1.625.185-3.245-.374-4.876a6.983,6.983,0,0,0-1.838-3.025,17.514,17.514,0,0,1-2.753-3.878c-.576-.918-.3-2.362-.429-3.569a7.135,7.135,0,0,0-.87-3.044c-.459-.748.032-1.415,1.218-1.615.521-.086.761-.292.381-.682a18.33,18.33,0,0,1-3.412-5.227A5.552,5.552,0,0,0,74.1,95.955a3.274,3.274,0,0,1-1.661-1.008.886.886,0,0,0-1.48-.066,1.079,1.079,0,0,1-1.738-.144c-1.026-1.178-2.109-2.315-3.047-3.562A3.666,3.666,0,0,0,64.8,89.941c-2.465-.983-4.61-2.916-7.533-2.6-.911.1-1.281-.691-1.6-1.321a2.718,2.718,0,0,0-2.866-1.62,5.878,5.878,0,0,1-3.253-.549,1.788,1.788,0,0,0-1.533-.062,32.277,32.277,0,0,1-3.821,1.08A6.607,6.607,0,0,0,40.554,89.5c-.116,1.39-.754,1.888-2.051,1.5a1.007,1.007,0,0,0-1.018.266c-1.038.945-2.012,1.963-3.036,2.924a1.78,1.78,0,0,0-.651,1.683,1.523,1.523,0,0,1-.311,1.263c-1.23,1.037-1.947,2.575-3.288,3.447a13.766,13.766,0,0,1-5.326,1.606,17.44,17.44,0,0,1-3.975.46c-.727-.039-1.113-.209-1.311-1.017-.89-3.621-.134-5.08,3.324-7.336.778-.508.55-1.051.071-1.544-.809-.828-1.48-1.642-.718-2.861a.454.454,0,0,0-.239-.661c-.344-.156-.8-.258-1.048.055-1.323,1.677-3.43,1.129-5.094,1.835a1.6,1.6,0,0,1-1.687-.334c-2.174-2.066-4.948-3.246-7.369-4.954C5.363,84.8,5.174,83.346,4.774,81.9c-.146-.529,0-.925.724-.895a.955.955,0,0,0,.965-.717c.025-.375-.5-.525-.918-.655-1.569-.495-1.863-.949-1.482-1.917.182-.462.579-.533.922-.727A2.861,2.861,0,0,0,6.8,74.262a1.835,1.835,0,0,1,1.613-1.995,1.313,1.313,0,0,0,.954-2.008c-.032-.064-.132-.1-.149-.164-.409-1.536-1.14-2.371-2.973-1.963-.907.2-1.711-.76-2.58-1.158-.223-.1-.236-.349-.258-.583A11.592,11.592,0,0,0,2,62.036C1.77,61.6,1.3,61.5.961,61.228c-.46-.364-1.195-.7-.889-1.454a1.617,1.617,0,0,1,1.65-1.029c.642.017,1.284.013,1.928.009.52,0,1.04-.005,1.56,0a1.22,1.22,0,0,0,1.113-.514c1.2-1.509,2.46-2.976,4.519-3.347.312-.056.368-.272.257-.585-.157-.448-.252-.921-.371-1.382a2.821,2.821,0,0,1,.821-3.139c.929-.81.784-1.382-.372-1.831a10.714,10.714,0,0,1-2.106-1.168A1.174,1.174,0,0,1,8.535,45.1a1.748,1.748,0,0,0,.2-.623c.047-.6.061-1.195.076-1.792.025-.99-.879-.527-1.311-.808a12.245,12.245,0,0,1-3.317-3.266A.968.968,0,0,1,4.769,37.1c1.108-.387,2.175-.894,3.275-1.308a3.086,3.086,0,0,0,1.391-.866c.749-.991,1.1-.406,1.394.277.209.491.541.771,1,.691a12.143,12.143,0,0,1,3.577-.069,3.711,3.711,0,0,0,3.524-1.637c.214-.257.412-.529.641-.77.569-.594,1.108-1.04,2.042-.508,1.309.746,2.947.607,4.251,1.476.36.24.624.62,1.1.731a2.154,2.154,0,0,0,2.595-1.36,9.518,9.518,0,0,1,3.4-3.741c2.375-1.634,1.626-2.473.62-4.324-.354-.653-.681-1.308-.358-1.953.283-.563,1.031-.542,1.606-.542a4.223,4.223,0,0,0,4.4-3.07,3.257,3.257,0,0,1,3.721-1.859,1.065,1.065,0,0,1,.687,1.237,7.94,7.94,0,0,1-1.352,3.668,2,2,0,0,0,.2,2.945,30.7,30.7,0,0,1,2.16,2.387,3.164,3.164,0,0,0,3.828,1.162c1.252-.374,1.827.132,1.491,1.349a5.2,5.2,0,0,0,.259,2.92,18.26,18.26,0,0,1,.505,2.491,3.28,3.28,0,0,0,3.282,2.7c.77-.1,1.113-.773.822-1.6-.025-.069-.084-.171-.059-.2.959-1.2-.021-1.975-.575-2.9s.5-1.413.772-2.114c.128-.322.5-.544.443-.974-.2-1.386.518-2.32,1.419-3.283,1.411-1.508,2.028-3.55,3.226-5.222a1.431,1.431,0,0,0-.035-1.415,5.467,5.467,0,0,1-.558-3.136c.022-.457-.248-1.1.324-1.311a1.992,1.992,0,0,1,1.821.121,11.381,11.381,0,0,1,4.419,5.039c.278.645.691,1.211.977,1.857a1.075,1.075,0,0,0,1.488.549,9.271,9.271,0,0,0,3.646-1.988c.565-.6,1.449-.463,2.179-.686.246-.076.539.226.587.444.28,1.276,1.511,2.082,1.649,3.43.047.463.184,1.2.642,1.158A1.405,1.405,0,0,0,78.319,25.6a10.826,10.826,0,0,0,.169-2.186,1.9,1.9,0,0,1,1.061-1.836c.316-.154.718-.291.6-.8-.115-.473-.469-.519-.866-.516-.278,0-.556,0-.834,0-.436,0-.87-.006-1.3.005-.576.015-1-.318-.758-.8.616-1.239.37-2.781,1.377-3.85a10.852,10.852,0,0,1,2.8-1.851c.288-.161.542.052.739.334a7,7,0,0,0,3.867,2.867c.688.2,1.021-.134,1.108-.837.253-2.018-.606-3.809-1.027-5.69-.39-1.747.251-2.771,1.989-2.985a15.464,15.464,0,0,0,2.588-.583A1.588,1.588,0,0,1,91.9,7.934c.325.912.628,1.576,1.875,1.623.953.035,1.932.147,2.886.087,1.26-.08,1.541-1.191,1.708-2.148a4.282,4.282,0,0,1,3.874-3.913c1.668-.277,3.4-.11,5.006-.859.541-.252.933-.722,1.674-.751a4.537,4.537,0,0,1,2.828.82c1.226.89,1.989.161,2.827-.426A12.673,12.673,0,0,1,118.09.348,9.935,9.935,0,0,1,120.944,0c.815-.014,1.292.453,1.08,1.18-.556,1.916.135,3.027,1.908,3.8a1.908,1.908,0,0,1,1.026,2.179.992.992,0,0,0,.791,1.25c1.32.22,1.708,1.345,2.388,2.193a4.18,4.18,0,0,1,.321.586,3.183,3.183,0,0,0,3.6,1.893,7.63,7.63,0,0,1,1.63-.051c.318.013.636.025.953.016.394-.012.851.032,1.038.3a1.987,1.987,0,0,0,2.68.579c2.028-.8,3.8.262,5.661.664,1.257.271,2.5.618,3.751.917a.784.784,0,0,0,.552-.01c1.046-.748,2.215-.311,3.231-.13,1.072.191,2.324-.232,3.258.722a.933.933,0,0,0,.855.046c.945-.49,1.833.043,2.735.1.614.039.275.66.324,1.017.064.454.033.847-.6.988-2.743.608-4.893,2.278-6.983,4.03-.595.5-1.208,1.146-1.083,1.9.167,1.016,1.158,1.327,2.049,1.415a22.723,22.723,0,0,1,2.276.476,2.188,2.188,0,0,1,1.857,1.687c.242,1.006-.608,1.446-1.25,1.961a7.263,7.263,0,0,0-1.876,1.823c-.358.6-.275.925.471,1.1,2.634.617,2.636.635,2.446,3.278-.095,1.319.849,1.895,1.78,2.406a10.13,10.13,0,0,1,3.3,2.855,3.56,3.56,0,0,1-1.431,5.068,1.153,1.153,0,0,1-1.655-.614c-.394-.752.137-1.048.615-1.255.862-.373.747-.751.132-1.229l-4.2-3.263a25.984,25.984,0,0,1-2.578,3.228.252.252,0,0,1-.3-.275c.2-1.474-1.053-1.823-1.944-2.214-.584-.257-1.2-.5-1.8-.768a4.034,4.034,0,0,0-3.435.425c-.4.18-.828.621-.07.878a.98.98,0,0,1,.819,1.083,1.368,1.368,0,0,1-1.007,1.439,8.663,8.663,0,0,1-2.535.555c-.644-.013-1.092-.313-1.145-.763-.1-.878-.763-.871-1.277-1.143-.3.478-.034.839.136,1.2.775,1.635.264,2.754-1.556,3.018a4.563,4.563,0,0,0-1.994.883c-1.445,1.035-3.01,1.875-4.448,2.911a1.073,1.073,0,0,1-1.248.2c-.4-.252-.316-.684-.225-1.025.137-.51.371-.952,1.068-.913.73.04,1.7-.286,1.679-.88s-1.091-.8-1.736-1.1a.427.427,0,0,0-.578.182,4.765,4.765,0,0,1-3.194,2.215c-1.3.363-1.778,1.465-2.2,2.578-.082.213-.117.447-.3.57-1.573,1.056-1.01,2.668-1.039,4.1-.014.655.583.983,1.151,1.126a2.967,2.967,0,0,1,1.819,4.584c-.359.575-.361.587.316.622a.488.488,0,0,1,.513.584,3.835,3.835,0,0,0,.342,1.6c.3.03.436-.17.591-.369a.725.725,0,0,1,.749-.363c1.891.27,2.282.522,2.08,2.5-.095.928-.108,1.85-.168,2.774-.018.261.15.649-.34.678-.315.018-.471-.175-.552-.453-.134-.455-.191-1.074-.879-.861s-.483.794-.347,1.307a3.144,3.144,0,0,1,.108.771c0,.2.071.482-.217.565-.35.1-.377-.158-.5-.418-.426-.938-2.477-1-3.108-.141-.17.232-.2.429-.015.574.7.551.492,1.23.3,1.9a4.527,4.527,0,0,0,.253,2.852c.913,2.259.732,4.663,1.233,6.967.869,3.994,2.5,7.506,5.908,10,1.312.96,2.485,2.095,3.837,3.01a16.583,16.583,0,0,0,2.447,1.193,25.852,25.852,0,0,1,6.144,3.5c2,1.7,3.784,3.683,6.045,5.043a11.22,11.22,0,0,0,4.1,1.769,3.8,3.8,0,0,1,2.578,1.778,18.033,18.033,0,0,1,2.575,5.912,9.073,9.073,0,0,0,1.947,4.02c1.242,1.368,1.5,3.3,1.79,5.109.565,3.553,2.027,6.819,3.206,10.172,1.217,3.465,3.849,5.905,6.407,8.372a2.045,2.045,0,0,0,1,.446,4.676,4.676,0,0,1,2.968,2.087,21.306,21.306,0,0,0,4.989,5.31,1.01,1.01,0,0,0,.481.257c1.554.06,2.162,1.251,2.749,2.376a3.211,3.211,0,0,0,3.458,1.911A4.9,4.9,0,0,1,193.4,157a5.007,5.007,0,0,0,3.931,1.494,4.241,4.241,0,0,1,3.235.834,1.981,1.981,0,0,0,1.835.235c2.045-.594,4.148-.466,6.226-.663a34.461,34.461,0,0,0,6.8-1.422c3.448-1.05,5.756,1.754,5.359,3.924a5.557,5.557,0,0,1-2.574,4.15,2.5,2.5,0,0,0-.856.706,2.147,2.147,0,0,1-2.837.863c-.348-.134-.527-.012-.618.387-.537,2.331-.052,3.291,1.927,4.725a35.49,35.49,0,0,0,6.788,3.433c1.962.862,3.944,1.712,5.945,2.422,2.2.778,4.351,1.7,6.641,2.275a49.138,49.138,0,0,1,9.6,3.154,37.967,37.967,0,0,1,6.642,4.472,31.2,31.2,0,0,0,6.781,4.119c2.465,1.046,5.025,2.213,7.882,1.9a1.26,1.26,0,0,1,1.383,1,11.823,11.823,0,0,1,.682,2.092,2.766,2.766,0,0,0,2.879,2.1c1.1-.008,1.9-.005,2.51,1.332.508,1.11,1.865,1.836,2.866,2.712q1.11.972,2.272,1.885a1.1,1.1,0,0,1,.416,1.388c-.53,1.109.093,1.894.7,2.616,1.2,1.426,1.266,2.073.1,3.562-.621.795-1.237,1.594-1.9,2.352a1.892,1.892,0,0,0-.081,2.368c.17.324.39.623.551.951.288.581.361,1.259-.219,1.6-.564.335-1.4.721-1.933.087-.753-.9-1.664-.784-2.63-.814-2.449-.081-4.271-1.463-6-3.01-.082-.071-.213-.216-.192-.256.871-1.634-1.124-2.741-.767-4.334.216-.967-.944-1.429-1.276-2.212-1.336-3.152-3.772-3.364-7.741-2.214a5.691,5.691,0,0,1-3.2-.173,14.689,14.689,0,0,1-3.2-1.467,5.3,5.3,0,0,0-2.627-.734c-.124,0-.248,0-.372,0a5.23,5.23,0,0,1-1.844-.205c-.256-.093-.618.063-.652-.411a.763.763,0,0,1,.468-.887c.5-.227.964-.536,1.725-.97a25.535,25.535,0,0,0-3.408-1.1c-1.711-.3-2.7,1.05-3.415,2.193a23.4,23.4,0,0,0-3.206,6.1,13.373,13.373,0,0,1-2.633,4.914,3.123,3.123,0,0,0-.258,3.8,1.946,1.946,0,0,1-.415,2.793,23.685,23.685,0,0,1-2.1,2.2.582.582,0,0,0-.206.494c.682,1.561.283,3.567,2.045,4.7a2.65,2.65,0,0,0,2.151.612,2.449,2.449,0,0,1,2.423.653,18.141,18.141,0,0,0,3.335,2.094,8.245,8.245,0,0,1,2.825,2.132,7.526,7.526,0,0,0,2.795,1.693c.591.254.889.631.577,1.164-1.257,2.147-.225,4.227.021,6.36.2,1.745,1.4,2.891,2.053,4.347a3.743,3.743,0,0,1-.12,3.254c-.3.551-.949.532-1.6.514a6.2,6.2,0,0,0-.66,0,17.376,17.376,0,0,1-2.67-.07,12.985,12.985,0,0,0-3.422.031c-1.267.236-2.052,1.427-2.977,2.286-.125.116-.174.285-.352.393a3.679,3.679,0,0,0-2.048,2.821,1.4,1.4,0,0,1-.521.953c-.7.431-.649.8-.085,1.265a.5.5,0,0,1,.185.268c.376,2.685,1.387,5.275,1.181,8.052a2.43,2.43,0,0,1-.57,1.421,10.227,10.227,0,0,1-3.875,2.8c-1.5.611-3.027,1.376-3.519,3.226a4.376,4.376,0,0,1-1,1.586,8.149,8.149,0,0,0-1.619,4.381,3.739,3.739,0,0,1-3.991,3.159,10.984,10.984,0,0,0-5.987.137,2,2,0,0,1-.675.111A6.5,6.5,0,0,1,213.779,283.325Zm-17.211-10.31c-.379-.454-.465-1.016.234-1.33a.967.967,0,0,1,.893.786c.119.6.878,1.386.147,1.745a.473.473,0,0,1-.209.053C197.163,274.269,196.906,273.418,196.568,273.015Zm-1.456-3.094a4.748,4.748,0,0,1-1.2-2.418c-.216-.621.582-.906,1.122-1.146a1.765,1.765,0,0,1,1.189,1.416,5.308,5.308,0,0,1-.455,2.229.182.182,0,0,1-.189.129A.866.866,0,0,1,195.112,269.92Zm-3.853-4.461c-.413-.262-.707-.616-.507-1.085s.657-.354,1.074-.241a5.375,5.375,0,0,0,2.375.6,2.524,2.524,0,0,1-1.846,1.083A2.042,2.042,0,0,1,191.259,265.459ZM38.7,257.872c-.446-.177-.381-.709-.237-1.251a4.389,4.389,0,0,0-2.04-4.747c-.276-.169-.628-.271-.7-.648-.364-1.98-1.767-3.544-2.2-5.5-.032-.141-.181-.29-.153-.408.312-1.375.582-2.731-.235-4.048a.7.7,0,0,1,.112-.628,1.418,1.418,0,0,0,0-2.128c-.628-.8.214-1.77.681-2.278,1.471-1.6.819-3.364.678-5.072-.06-.7-.1-1.39-.114-2.123.719.047.835.718,1.234,1.054a3.652,3.652,0,0,1,.6.794c.338.5.868,1.092,1.373.738s-.037-.974-.285-1.464a12.709,12.709,0,0,1-.84-2.009,1.408,1.408,0,0,1,.29-1.56,1.972,1.972,0,0,0,.471-.751,1.469,1.469,0,0,0-.3-1.556c-.486-.377-.792.354-1.127.649-.465.406-.731,1.3-1.417,1.117-.754-.2-.569-1.169-.629-1.762-.13-1.282.018-2.555-.842-3.718-.372-.5.27-.829.781-.874.626-.058,1.256-.122,1.878-.177,1.165-.105,1.008-.844.659-1.373a4.871,4.871,0,0,1-.733-3.074c.093-1.969-.083-3.843-1.77-5.219a.383.383,0,0,1-.077-.581c1.1-1.187.4-2.42,0-3.589-.332-.969-.873-1.863-1.293-2.8a.352.352,0,0,0-.412-.259c-.2.019-.245.158-.246.308-.006.481-.164.8-.716.783s-.764-.4-.947-.821c-.072-.167-.092-.354-.158-.522-.149-.38.355-1.044-.5-1.123-.755-.069-.548.507-.648.9-.083.329-.33.553-.665.355-.253-.15-.125-.349-.006-.631.415-.967,1.438-1.894.8-3.022a3.567,3.567,0,0,1-.33-2.673,5.625,5.625,0,0,1,.923-2.438c.48-.618.17-1.441.181-2.17.009-.753.258-.822.87-.5a2,2,0,0,1,.963,1.292c.556,2,2.058,2.753,3.9,2.992,1.557.2,3.106.288,4.422-.949a3.366,3.366,0,0,1,2.716-.624c.28.015.559.03.831.027,1.908-.024,1.786-.055,2.575-1.8.58-1.279,1.657-2.327,2.289-3.59.883-1.757,2.451-2.254,4.125-2.746a4.176,4.176,0,0,0,1.818-1.422,1.682,1.682,0,0,1,2.351-.516,1.178,1.178,0,0,0,1.155.029,1.709,1.709,0,0,1,.7-.136,1.17,1.17,0,0,1,1.243,1.128c.189,1.209.5,1.361,1.63.77a1.63,1.63,0,0,1,2.571.889,1.88,1.88,0,0,1-.264,1.374c-.23.565-.353,1.169.671,1.108.794-.047,1.212.454,1.23,1.241a15.23,15.23,0,0,1-.018,2.473c-.157,1.121.555,1.492,1.352,1.839.2.086.519,0,.641.125.314.33,1.007.325,1.012.838.006.421-.285.416-.577.412a1.059,1.059,0,0,0-.384.038,1.414,1.414,0,0,0-.318,2.189,4.26,4.26,0,0,1,1.505,3.886,1.681,1.681,0,0,0,.373,1.353,2.517,2.517,0,0,1,.28,3.506c-.613.9-.441,2.011-1.064,2.92a12.347,12.347,0,0,1-2.187,2.551,4.032,4.032,0,0,0-1.37,1.709,2.158,2.158,0,0,0,.511,2.418c.944,1.007,1.869,2.032,2.826,3.027.391.407.549.785.146,1.266a11.055,11.055,0,0,0-1.993,5.282c-.428,2.25-.359,4.593-.777,6.846-.32,1.732-.271,3.561-1.1,5.187-.192.378-.014.6.136.951a2.468,2.468,0,0,1,.066,1.86,14.621,14.621,0,0,0-1.271,5.464,12.642,12.642,0,0,1-1.383,3.8c-.312.711-.788.737-1.262.207a2.3,2.3,0,0,0-1.555-.7,4.022,4.022,0,0,1-2.357-1.3c-.2-.218-.4-.441-.576-.676-1.32-1.719-1.318-1.72-3.164-.808-1.295.639-1.711.513-2.348-.712-.033-.067-.028-.168-.075-.207-.55-.439-.933-1.564-1.723-1.074-.654.4.1,1.139.34,1.738a2.475,2.475,0,0,1,.219,2.251c-.493,1.075.319,2.223.712,3.279a1.345,1.345,0,0,1-.115,1.5c-1.246,1.561-2.51,3.109-4.484,3.792a2,2,0,0,1-2.683-.952,1.247,1.247,0,0,0-1.633.03,12.686,12.686,0,0,0-.806,1.072,1.156,1.156,0,0,1-.981.5A2.057,2.057,0,0,1,38.7,257.872Zm-5.171-3.2c-.282-.1-.442-.251-.4-.564a3.643,3.643,0,0,0-1.169-3.483c-.1-.082-.183-.345-.142-.384a10.3,10.3,0,0,1,1.693-1.605c.4-.032.915.9.691,1.255-.194.308-.308.455.041.789.428.407.324,3.341-.054,3.768a.638.638,0,0,1-.47.259A.56.56,0,0,1,33.529,254.67ZM28.4,247.217c-.023-.985.575-.967,1-.95a1.776,1.776,0,0,0,.253,0c1.048-.054,1.851-.119,1.664,1-.125.745.234,1.832-1.06,1.928l-.065,0A2.221,2.221,0,0,1,28.4,247.217ZM31.416,190.4a2.143,2.143,0,0,1-1-1.339c-.136-.928.509-1.52.926-2.176.276-.434.328-1.324,1.134-1.13s.64.966.639,1.668c.248,1.06-.695,1.824-.936,2.817a.378.378,0,0,1-.408.265A.621.621,0,0,1,31.416,190.4Zm28.914-8.483a.769.769,0,0,1,.61-.85c.4-.105,1.777,1.2,1.637,1.6-.19.529-.108,1.281-.893,1.472a.506.506,0,0,1-.122.015C61,184.152,60.483,183.2,60.33,181.917Zm19.513-34.036c-.716.081-1.022-.478-1.323-.9a1.981,1.981,0,0,1-.079-1.615c.072-.309.419-.2.635-.023q.687.554,1.36,1.126c.293.247.58.519.314.939A.9.9,0,0,1,80,147.9.83.83,0,0,1,79.843,147.881Zm14.674,0c-.909-.019-1.937-.767-1.956-1.423a1.473,1.473,0,0,1,1.649-1.514c1.184,0,1.736.476,1.726,1.506a1.264,1.264,0,0,1-1.368,1.432Zm-17.5-6.307c-.494-.095-1.316.085-1.55-.8-.123-.466,1.1-1.965,1.452-1.836.863.319.97,1.232,1.2,1.941.194.6-.321.694-.915.694Zm5.661-4.383c-.463-1.02-.946-.837-1.779-.4a14.159,14.159,0,0,1-2.944.937,1.277,1.277,0,0,1-1.518-.676,1.4,1.4,0,0,1,.653-1.826c1.067-.715,2.1-1.741,3.34-1.333.574.029.876.023,1.172.063.83.106,1.025-.211.673-.945a.868.868,0,0,1,.725-1.332,2.37,2.37,0,0,1,2.449,1.379c.473.893-.238,1.469-.959,1.824-.628.311-.951.57-.317,1.172a.506.506,0,0,1,.125.3c.048.459.784,1.009.149,1.325a1.612,1.612,0,0,1-.7.164A1.108,1.108,0,0,1,82.674,137.194Zm-14.639-6.882c-.155-.671.35-1.015.841-1.292a.877.877,0,0,1,.44-.061,2.181,2.181,0,0,0,.221,0,1.22,1.22,0,0,1,1,.382c.533.53.622.906-.24,1.121a6.557,6.557,0,0,1-1.056.3c-.176.013-.375.05-.563.05A.581.581,0,0,1,68.035,130.311Z"
          transform="translate(0 0)" fill="url(#linear-gradient)"/>
  </g>
</svg>
