<svg xmlns="http://www.w3.org/2000/svg" width="37.363" height="32.663" viewBox="0 0 37.363 32.663">
  <defs>
    <style>
      .cls-1{fill:#fff}
    </style>
  </defs>
  <g id="reload" transform="rotate(90.97 18.363 18.688)">
    <path id="Path_647"
          d="M46.069 36.707a16.1 16.1 0 0 1 1.662-32.093V.283a.311.311 0 0 1 .5-.218l8.918 6.549a.275.275 0 0 1 0 .444l-8.918 6.549a.313.313 0 0 1-.5-.218V9.066a11.661 11.661 0 1 0 11.7 13.52 2.217 2.217 0 0 1 4.384.669 16.123 16.123 0 0 1-17.746 13.452z"
          class="cls-1" data-name="Path 647" transform="translate(-31.817)"/>
  </g>
</svg>
