<svg xmlns="http://www.w3.org/2000/svg" width="43.373" height="31.542" viewBox="0 0 43.373 31.542">
  <path id="repeat"
        d="M5.914 85.6H0l7.886 7.886 7.888-7.886H9.859a11.863 11.863 0 0 1 11.828-11.826 12.691 12.691 0 0 1 5.52 1.38l2.956-2.954a17.619 17.619 0 0 0-8.476-2.367A15.815 15.815 0 0 0 5.914 85.6zm27.6 0a11.863 11.863 0 0 1-11.827 11.831 12.691 12.691 0 0 1-5.52-1.38l-2.957 2.956a17.619 17.619 0 0 0 8.476 2.367A15.818 15.818 0 0 0 37.459 85.6h5.914l-7.886-7.886L27.6 85.6z"
        class="cls-1" transform="translate(0 -69.832)"/>
</svg>
